<svg id="visual" viewBox="0 0 3000 675" width="3000" height="675" xmlns="http://www.w3.org/2000/svg" xmlns:xlink="http://www.w3.org/1999/xlink" version="1.1"><path d="M0 55L273 55L273 82L545 82L545 156L818 156L818 150L1091 150L1091 123L1364 123L1364 75L1636 75L1636 96L1909 96L1909 129L2182 129L2182 75L2455 75L2455 102L2727 102L2727 129L3000 129L3000 197L3000 0L3000 0L2727 0L2727 0L2455 0L2455 0L2182 0L2182 0L1909 0L1909 0L1636 0L1636 0L1364 0L1364 0L1091 0L1091 0L818 0L818 0L545 0L545 0L273 0L273 0L0 0Z" fill="#0e163b"></path><path d="M0 163L273 163L273 197L545 197L545 258L818 258L818 251L1091 251L1091 210L1364 210L1364 170L1636 170L1636 231L1909 231L1909 183L2182 183L2182 163L2455 163L2455 197L2727 197L2727 251L3000 251L3000 258L3000 195L3000 127L2727 127L2727 100L2455 100L2455 73L2182 73L2182 127L1909 127L1909 94L1636 94L1636 73L1364 73L1364 121L1091 121L1091 148L818 148L818 154L545 154L545 80L273 80L273 53L0 53Z" fill="#341e50"></path><path d="M0 440L273 440L273 447L545 447L545 393L818 393L818 399L1091 399L1091 440L1364 440L1364 325L1636 325L1636 467L1909 467L1909 426L2182 426L2182 291L2455 291L2455 514L2727 514L2727 379L3000 379L3000 453L3000 256L3000 249L2727 249L2727 195L2455 195L2455 161L2182 161L2182 181L1909 181L1909 229L1636 229L1636 168L1364 168L1364 208L1091 208L1091 249L818 249L818 256L545 256L545 195L273 195L273 161L0 161Z" fill="#5d215e"></path><path d="M0 588L273 588L273 615L545 615L545 588L818 588L818 561L1091 561L1091 602L1364 602L1364 588L1636 588L1636 575L1909 575L1909 615L2182 615L2182 561L2455 561L2455 622L2727 622L2727 636L3000 636L3000 602L3000 451L3000 377L2727 377L2727 512L2455 512L2455 289L2182 289L2182 424L1909 424L1909 465L1636 465L1636 323L1364 323L1364 438L1091 438L1091 397L818 397L818 391L545 391L545 445L273 445L273 438L0 438Z" fill="#882163"></path><path d="M0 676L273 676L273 676L545 676L545 676L818 676L818 676L1091 676L1091 676L1364 676L1364 676L1636 676L1636 676L1909 676L1909 676L2182 676L2182 676L2455 676L2455 676L2727 676L2727 676L3000 676L3000 676L3000 600L3000 634L2727 634L2727 620L2455 620L2455 559L2182 559L2182 613L1909 613L1909 573L1636 573L1636 586L1364 586L1364 600L1091 600L1091 559L818 559L818 586L545 586L545 613L273 613L273 586L0 586Z" fill="#b0235f"></path></svg>